<?xml version="1.0" encoding="utf-8"?>
<!-- Generator: Adobe Illustrator 15.1.0, SVG Export Plug-In  -->
<!DOCTYPE svg PUBLIC "-//W3C//DTD SVG 1.1//EN" "http://www.w3.org/Graphics/SVG/1.1/DTD/svg11.dtd" [
	<!ENTITY ns_flows "http://ns.adobe.com/Flows/1.0/">
]>
<svg version="1.1"
	 xmlns="http://www.w3.org/2000/svg" xmlns:xlink="http://www.w3.org/1999/xlink" xmlns:a="http://ns.adobe.com/AdobeSVGViewerExtensions/3.0/"
	 x="0px" y="0px" width="124px" height="114px" viewBox="0 0 124 114" enable-background="new 0 0 124 114" xml:space="preserve">
<defs>
</defs>
<path fill="#5B5B5F" d="M2.63,91.774c0-0.647,0.57-1.22,1.219-1.22c0.686,0,1.221,0.572,1.221,1.22v4.004h2.477
	c0.649,0,1.144,0.494,1.144,1.142c0,0.649-0.495,1.144-1.144,1.144H5.07v10.523c0,1.638,0.914,2.515,2.211,2.515
	c0.647,0,1.181,0.495,1.181,1.145c0,0.647-0.534,1.143-1.181,1.143c-3.012,0-4.65-2.02-4.65-4.802V98.063H1.143
	C0.495,98.063,0,97.569,0,96.92c0-0.647,0.495-1.142,1.143-1.142h1.488L2.63,91.774L2.63,91.774z"/>
<path fill="#5B5B5F" d="M14.371,96.693v9.948c0,2.479,0.799,4.612,4.65,4.612c3.85,0,4.651-2.134,4.651-4.612v-9.948
	c0-0.687,0.572-1.221,1.257-1.221c0.647,0,1.182,0.534,1.182,1.221v9.948c0,3.622-1.182,6.938-7.09,6.938
	c-5.872,0-7.091-3.316-7.091-6.938v-9.948c0-0.687,0.534-1.221,1.219-1.221C13.798,95.474,14.371,96.007,14.371,96.693z"/>
<path fill="#5B5B5F" d="M37.394,95.243c3.394,0,5.262,1.793,5.871,2.63c0.19,0.269,0.267,0.458,0.267,0.726
	c0,0.647-0.495,1.105-1.105,1.105c-0.382,0-0.647-0.153-0.915-0.458c-0.572-0.647-1.602-1.792-4.118-1.792
	c-3.507,0-5.375,2.25-5.375,6.938c0,4.766,1.868,6.978,5.375,6.978c2.211,0,3.545-0.992,4.422-1.64
	c0.268-0.191,0.458-0.267,0.724-0.267c0.611,0,1.106,0.495,1.106,1.104c0,0.343-0.114,0.611-0.496,0.954
	c-0.839,0.686-2.668,2.059-5.757,2.059c-4.917,0-7.853-2.935-7.853-9.188C29.541,98.142,32.477,95.243,37.394,95.243z"/>
<path fill="#5B5B5F" d="M47.228,90.439c0-1.105,0.533-1.523,1.448-1.523c0.915,0,1.449,0.418,1.449,1.523
	c0,0.916-0.534,1.45-1.449,1.45C47.761,91.89,47.228,91.355,47.228,90.439z M49.896,112.169c0,0.687-0.535,1.22-1.22,1.22
	c-0.687,0-1.22-0.533-1.22-1.22V96.693c0-0.687,0.533-1.221,1.22-1.221c0.686,0,1.22,0.534,1.22,1.221V112.169z"/>
<path fill="#5B5B5F" d="M56.91,96.693v9.948c0,2.479,0.801,4.612,4.65,4.612c3.851,0,4.651-2.134,4.651-4.612v-9.948
	c0-0.687,0.572-1.221,1.259-1.221c0.647,0,1.182,0.534,1.182,1.221v9.948c0,3.622-1.182,6.938-7.091,6.938
	c-5.87,0-7.09-3.316-7.09-6.938v-9.948c0-0.687,0.534-1.221,1.22-1.221C56.338,95.474,56.91,96.007,56.91,96.693z"/>
<path fill="#5B5B5F" d="M84.928,97.721V87.162c0-0.687,0.534-1.221,1.22-1.221c0.687,0,1.22,0.534,1.22,1.221v18.907
	c0,5.032-3.125,7.511-7.473,7.511c-4.916,0-7.813-2.935-7.813-9.188c0-6.25,2.744-9.148,7.662-9.148
	C82.183,95.243,84.051,96.502,84.928,97.721z M84.928,100.809c0,0-1.449-3.354-5.033-3.354c-3.468,0-5.374,2.25-5.374,6.938
	c0,4.766,1.868,6.979,5.374,6.979c2.937,0,5.033-1.679,5.033-5.301V100.809z"/>
<path fill="#5B5B5F" d="M94.266,99.476c-0.381,0.419-0.648,0.533-0.991,0.533c-0.61,0-1.105-0.495-1.105-1.105
	c0-0.268,0.077-0.458,0.19-0.648c1.068-1.677,3.126-3.012,6.328-3.012c4.423,0,6.863,2.592,6.863,6.48v10.483
	c0,0.648-0.535,1.183-1.182,1.183c-0.648,0-1.183-0.534-1.183-1.183v-1.371c-0.954,1.791-3.165,2.744-5.452,2.744
	c-4.04,0-6.594-1.944-6.594-5.452c0-3.354,2.554-5.375,6.67-5.375h5.377v-1.029c0-2.591-1.717-4.193-4.5-4.193
	C96.668,97.53,95.447,98.142,94.266,99.476z M103.187,106.489v-1.602h-5.376c-2.479,0-4.193,1.03-4.193,3.24
	c0,1.982,1.373,3.241,4.346,3.241C100.633,111.369,103.187,109.729,103.187,106.489z"/>
<path fill="#5B5B5F" d="M121.826,97.721V87.162c0-0.687,0.534-1.221,1.219-1.221c0.687,0,1.221,0.534,1.221,1.221v18.907
	c0,5.032-3.125,7.511-7.473,7.511c-4.916,0-7.813-2.935-7.813-9.188c0-6.25,2.744-9.148,7.663-9.148
	C119.082,95.243,120.949,96.502,121.826,97.721z M121.826,100.809c0,0-1.449-3.354-5.033-3.354c-3.468,0-5.373,2.25-5.373,6.938
	c0,4.766,1.867,6.979,5.373,6.979c2.937,0,5.033-1.679,5.033-5.301V100.809z"/>
<path fill="#E3AF3A" d="M21.03,75.393c0,3.243-2.627,5.871-5.872,5.871l0,0c-3.242,0-5.872-2.628-5.872-5.871V62.239
	c0-3.244,2.63-5.87,5.872-5.87l0,0c3.245,0,5.872,2.626,5.872,5.87V75.393z"/>
<path fill="#52A071" d="M44.518,75.393c0,3.243-2.629,5.871-5.872,5.871l0,0c-3.244,0-5.872-2.628-5.872-5.871V24.661
	c0-3.244,2.627-5.871,5.872-5.871l0,0c3.243,0,5.872,2.627,5.872,5.871V75.393z"/>
<path fill="#76A9DA" d="M68.004,75.393c0,3.243-2.628,5.871-5.872,5.871l0,0c-3.243,0-5.872-2.628-5.872-5.871V5.872
	C56.26,2.627,58.889,0,62.132,0l0,0c3.244,0,5.872,2.627,5.872,5.872V75.393z"/>
<path fill="#C5525C" d="M91.49,75.393c0,3.243-2.629,5.871-5.873,5.871l0,0c-3.242,0-5.869-2.628-5.869-5.871V43.45
	c0-3.244,2.627-5.871,5.869-5.871l0,0c3.244,0,5.873,2.627,5.873,5.871V75.393z"/>
<path fill="#D0763A" d="M114.979,75.393c0,3.243-2.629,5.871-5.873,5.871l0,0c-3.242,0-5.873-2.628-5.873-5.871V62.239
	c0-3.244,2.631-5.87,5.873-5.87l0,0c3.244,0,5.873,2.626,5.873,5.87V75.393z"/>
</svg>
